<?xml version="1.0" encoding="UTF-8"?>
<!DOCTYPE svg PUBLIC "-//W3C//DTD SVG 1.1//EN" "http://www.w3.org/Graphics/SVG/1.1/DTD/svg11.dtd">
<svg xmlns="http://www.w3.org/2000/svg" version="1.1" width="2105px" height="2105px" style="shape-rendering:geometricPrecision; text-rendering:geometricPrecision; image-rendering:optimizeQuality; fill-rule:evenodd; clip-rule:evenodd" xmlns:xlink="http://www.w3.org/1999/xlink">
<g><path style="opacity:1" fill="#4371c3" d="M 313.5,-0.5 C 805.833,-0.5 1298.17,-0.5 1790.5,-0.5C 1902.2,14.1284 1989.03,68.1284 2051,161.5C 2081.95,211.198 2099.79,265.198 2104.5,323.5C 2104.5,808.5 2104.5,1293.5 2104.5,1778.5C 2092.06,1898.59 2035.06,1990.76 1933.5,2055C 1886.02,2083.05 1834.69,2099.05 1779.5,2103C 1537,2103.17 1294.5,2103.33 1052,2103.5C 809.5,2103.33 567,2103.17 324.5,2103C 220.263,2093.47 135.763,2047.97 71,1966.5C 29.1472,1910.79 5.31391,1848.12 -0.5,1778.5C -0.5,1293.5 -0.5,808.5 -0.5,323.5C 12.5235,199.213 72.5235,105.38 179.5,42C 221.575,19.2509 266.242,5.08421 313.5,-0.5 Z"/></g>
<g><path style="opacity:1" fill="#426fbe" d="M 665.5,545.5 C 691.61,544.93 717.61,545.763 743.5,548C 755.441,549.333 767.441,550.666 779.5,552C 792.776,554.665 806.109,557.332 819.5,560C 838.798,565.928 858.131,571.928 877.5,578C 883.72,581.776 890.387,584.443 897.5,586C 910.84,592.678 924.173,599.345 937.5,606C 946.296,612.789 955.63,618.789 965.5,624C 968.565,628.125 972.565,630.791 977.5,632C 1007.81,655.64 1035.65,682.14 1061,711.5C 1063.33,715.167 1065.67,718.833 1068,722.5C 1074.33,730.167 1080.67,737.833 1087,745.5C 1093.67,756.167 1100.33,766.833 1107,777.5C 1139.57,836.991 1160.91,900.324 1171,967.5C 1174.77,999.81 1176.94,1032.14 1177.5,1064.5C 1178.42,1149.7 1162.92,1231.37 1131,1309.5C 1120.71,1330.38 1110.04,1351.05 1099,1371.5C 1097.67,1372.83 1096.33,1374.17 1095,1375.5C 1089.82,1385.35 1083.82,1394.68 1077,1403.5C 1071,1410.83 1065,1418.17 1059,1425.5C 1057.12,1429.39 1054.45,1432.72 1051,1435.5C 1049,1439.35 1047.5,1443.35 1046.5,1447.5C 1046.67,1448.83 1046.83,1450.17 1047,1451.5C 1049,1454.83 1051,1458.17 1053,1461.5C 1070.08,1476.58 1086.58,1492.41 1102.5,1509C 1103.45,1509.48 1104.45,1509.65 1105.5,1509.5C 1105.83,1513.17 1107.83,1515.17 1111.5,1515.5C 1124.11,1528.61 1137.11,1541.78 1150.5,1555C 1151.45,1555.48 1152.45,1555.65 1153.5,1555.5C 1172.3,1574.81 1191.97,1594.64 1212.5,1615C 1213.5,1615.33 1214.5,1615.67 1215.5,1616C 1228.67,1629.17 1241.83,1642.33 1255,1655.5C 1257.29,1660.39 1259.96,1665.05 1263,1669.5C 1263.03,1674.39 1263.86,1679.06 1265.5,1683.5C 1263.59,1690.72 1260.26,1697.22 1255.5,1703C 1252.98,1703.52 1250.98,1704.85 1249.5,1707C 1245.5,1708.33 1241.5,1709.67 1237.5,1711C 1141.83,1711.67 1046.17,1711.67 950.5,1711C 945.108,1709.95 939.775,1708.62 934.5,1707C 928.693,1704.55 923.359,1701.21 918.5,1697C 898.667,1677.17 878.833,1657.33 859,1637.5C 858.667,1636.5 858.333,1635.5 858,1634.5C 843.082,1618.91 827.582,1604.08 811.5,1590C 804.078,1587.58 796.412,1586.91 788.5,1588C 768.253,1591.27 747.92,1594.27 727.5,1597C 712.167,1597.33 696.833,1597.67 681.5,1598C 676.105,1599.96 670.771,1599.96 665.5,1598C 632.01,1597.88 599.01,1594.88 566.5,1589C 552.713,1585.35 538.713,1582.01 524.5,1579C 508.351,1574.03 492.351,1568.7 476.5,1563C 454.81,1553.1 433.476,1542.43 412.5,1531C 398.719,1522.39 385.385,1513.06 372.5,1503C 366.543,1498.38 360.876,1493.38 355.5,1488C 354.5,1487.67 353.5,1487.33 352.5,1487C 342.738,1477.24 333.071,1467.57 323.5,1458C 322.552,1457.52 321.552,1457.35 320.5,1457.5C 320.649,1456.45 320.483,1455.45 320,1454.5C 313.234,1448.41 307.234,1441.74 302,1434.5C 295.647,1428.68 289.98,1422.35 285,1415.5C 278.333,1406.17 271.667,1396.83 265,1387.5C 219.923,1316.19 193.257,1238.19 185,1153.5C 183.309,1130.45 181.809,1107.45 180.5,1084.5C 182.009,1053.51 184.176,1022.51 187,991.5C 189.504,979.341 191.504,967.007 193,954.5C 201.354,914.414 213.354,875.414 229,837.5C 230,836.5 231,835.5 232,834.5C 234.541,826.636 237.541,818.969 241,811.5C 245.837,804.653 249.837,797.32 253,789.5C 274.586,751.864 300.92,717.531 332,686.5C 332.483,685.552 332.649,684.552 332.5,683.5C 333.552,683.649 334.552,683.483 335.5,683C 360.247,658.225 387.247,636.558 416.5,618C 492.215,572.719 574.548,549.053 663.5,547C 664.416,546.722 665.082,546.222 665.5,545.5 Z"/></g>
<g><path style="opacity:1" fill="#5f9bd4" d="M 1035.5,698.5 C 1072.64,742.438 1101.31,791.438 1121.5,845.5C 1131.45,874.901 1139.11,904.901 1144.5,935.5C 1157.84,1018.1 1156.18,1100.44 1139.5,1182.5C 1119.85,1277.83 1075.68,1359.49 1007,1427.5C 1008.79,1431.48 1011.63,1434.81 1015.5,1437.5C 1017.75,1440.29 1020.42,1442.63 1023.5,1444.5C 1024.83,1446.5 1026.5,1448.17 1028.5,1449.5C 1032.17,1453.83 1036.17,1457.83 1040.5,1461.5C 1110.47,1529.3 1180.63,1596.97 1251,1664.5C 1251.58,1665.93 1251.41,1667.26 1250.5,1668.5C 1247.83,1668.5 1245.17,1668.5 1242.5,1668.5C 1240.83,1668.5 1239.17,1668.5 1237.5,1668.5C 1235.5,1668.5 1233.5,1668.5 1231.5,1668.5C 1229.5,1668.5 1227.5,1668.5 1225.5,1668.5C 1223.5,1668.5 1221.5,1668.5 1219.5,1668.5C 1216.17,1668.5 1212.83,1668.5 1209.5,1668.5C 1120.83,1668.5 1032.17,1668.5 943.5,1668.5C 942.833,1667.17 941.833,1666.17 940.5,1665.5C 899.036,1622.87 857.369,1580.37 815.5,1538C 793.642,1542.42 771.642,1546.42 749.5,1550C 670.094,1560.23 592.094,1553.89 515.5,1531C 443.96,1506.89 382.627,1467.39 331.5,1412.5C 298.854,1376.56 272.188,1336.56 251.5,1292.5C 241.74,1269.99 233.407,1246.99 226.5,1223.5C 215.178,1180.58 208.511,1136.91 206.5,1092.5C 206.333,1068.83 206.5,1045.16 207,1021.5C 208.805,997.421 211.305,973.421 214.5,949.5C 224.014,895.626 241.347,844.293 266.5,795.5C 282.757,765.259 301.757,736.925 323.5,710.5C 409.781,611.199 519.115,558.032 651.5,551C 723.409,545.822 793.409,554.822 861.5,578C 930.095,603.131 988.095,643.298 1035.5,698.5 Z"/></g>
<g><path style="opacity:1" fill="#fefefe" d="M 1242.5,1662.5 C 1143.33,1663.5 1044,1663.83 944.5,1663.5C 902.396,1620.23 860.063,1577.06 817.5,1534C 815.167,1533.33 812.833,1533.33 810.5,1534C 717.682,1556.62 625.015,1555.95 532.5,1532C 417.38,1496.86 330.213,1427.03 271,1322.5C 236.973,1259.04 217.306,1191.38 212,1119.5C 205.342,1040.11 212.676,962.111 234,885.5C 267.738,775.82 331.904,688.986 426.5,625C 496.312,581.955 572.312,558.621 654.5,555C 726.142,550.195 795.808,559.528 863.5,583C 947.521,615.355 1014.69,668.855 1065,743.5C 1112.83,816.649 1140.16,896.982 1147,984.5C 1155.22,1075.39 1144.88,1164.06 1116,1250.5C 1096.43,1304.01 1068.43,1352.34 1032,1395.5C 1021.45,1406.38 1011.28,1417.55 1001.5,1429C 1081.8,1506.83 1162.14,1584.66 1242.5,1662.5 Z"/></g>
<g><path style="opacity:1" fill="#649fd7" d="M 1928.5,567.5 C 1928.5,624.167 1928.5,680.833 1928.5,737.5C 1928.5,738.167 1928.17,738.5 1927.5,738.5C 1835.83,738.5 1744.17,738.5 1652.5,738.5C 1652.5,1004.5 1652.5,1270.5 1652.5,1536.5C 1652.5,1537.17 1652.17,1537.5 1651.5,1537.5C 1645.83,1537.5 1640.17,1537.5 1634.5,1537.5C 1573.5,1537.5 1512.5,1537.5 1451.5,1537.5C 1448.29,1537.81 1445.29,1537.48 1442.5,1536.5C 1442.5,1270.5 1442.5,1004.5 1442.5,738.5C 1351.17,738.5 1259.83,738.5 1168.5,738.5C 1167.88,738.389 1167.38,738.056 1167,737.5C 1166.5,693.168 1166.33,648.835 1166.5,604.5C 1166.5,601.833 1166.5,599.167 1166.5,596.5C 1166.5,592.5 1166.5,588.5 1166.5,584.5C 1166.5,582.833 1166.5,581.167 1166.5,579.5C 1166.5,575.5 1166.5,571.5 1166.5,567.5C 1420.6,566.167 1674.6,566.167 1928.5,567.5 Z"/></g>
<g><path style="opacity:1" fill="#426ebe" d="M 1166.5,567.5 C 1166.5,571.5 1166.5,575.5 1166.5,579.5C 1157.88,585.813 1153.38,594.48 1153,605.5C 1151.89,627.808 1151.39,650.141 1151.5,672.5C 1151.4,695.522 1151.9,718.522 1153,741.5C 1154.82,757.337 1163.32,767.504 1178.5,772C 1185.13,772.972 1191.8,773.639 1198.5,774C 1269.83,774.333 1341.17,774.667 1412.5,775C 1419.23,776.727 1423.73,780.894 1426,787.5C 1427.33,1037.48 1427.99,1287.48 1428,1537.5C 1430.47,1559.31 1442.64,1570.81 1464.5,1572C 1519.83,1572.67 1575.17,1572.67 1630.5,1572C 1655.57,1569.59 1668.07,1555.76 1668,1530.5C 1668,1282.46 1668.67,1034.46 1670,786.5C 1670.94,783.344 1672.44,780.511 1674.5,778C 1676.97,776.54 1679.64,775.54 1682.5,775C 1755.17,774.667 1827.83,774.333 1900.5,774C 1929.67,774.167 1944.17,759.667 1944,730.5C 1944.67,692.5 1944.67,654.5 1944,616.5C 1944.23,605.862 1941.9,595.862 1937,586.5C 1935,583.833 1932.67,581.5 1930,579.5C 1929.5,575.514 1929.33,571.514 1929.5,567.5C 1940.88,572.712 1948.05,581.379 1951,593.5C 1951.31,598.882 1951.97,604.215 1953,609.5C 1953.67,651.5 1953.67,693.5 1953,735.5C 1951.8,741.419 1951.14,747.419 1951,753.5C 1949.49,759.307 1946.49,764.307 1942,768.5C 1941.52,769.448 1941.35,770.448 1941.5,771.5C 1940.45,771.351 1939.45,771.517 1938.5,772C 1935.92,774.748 1932.92,776.914 1929.5,778.5C 1922.95,780.564 1916.28,782.064 1909.5,783C 1835.5,783.167 1761.5,783.667 1687.5,784.5C 1684.91,785.71 1682.41,787.044 1680,788.5C 1679.83,790.715 1679.16,792.715 1678,794.5C 1677.83,1042.17 1677.33,1289.83 1676.5,1537.5C 1675.88,1544.29 1674.71,1550.96 1673,1557.5C 1669.63,1564.87 1664.46,1570.71 1657.5,1575C 1651.46,1577.08 1645.46,1579.08 1639.5,1581C 1578.5,1581.67 1517.5,1581.67 1456.5,1581C 1451.84,1579.85 1447.18,1578.52 1442.5,1577C 1439.17,1575 1435.83,1573 1432.5,1571C 1422.99,1561.46 1418.16,1549.96 1418,1536.5C 1417.67,1288.17 1417.33,1039.83 1417,791.5C 1415.81,790.437 1415.31,789.103 1415.5,787.5C 1412.75,786.634 1410.08,785.467 1407.5,784C 1333.83,783.667 1260.17,783.333 1186.5,783C 1179.79,781.928 1173.12,780.595 1166.5,779C 1164.38,776.201 1161.71,774.201 1158.5,773C 1155.67,770.167 1152.83,767.333 1150,764.5C 1148.49,759.597 1146.49,754.93 1144,750.5C 1142.4,702.85 1142.07,655.184 1143,607.5C 1143.33,603.167 1143.67,598.833 1144,594.5C 1146.49,590.07 1148.49,585.403 1150,580.5C 1154.56,574.756 1160.06,570.423 1166.5,567.5 Z"/></g>
<g><path style="opacity:1" fill="#fefefe" d="M 1924.5,734.5 C 1833.17,734.333 1741.83,734.5 1650.5,735C 1650,735.5 1649.5,736 1649,736.5C 1648.5,1002.17 1648.33,1267.83 1648.5,1533.5C 1581.17,1533.5 1513.83,1533.5 1446.5,1533.5C 1446.83,1267.33 1446.5,1001.33 1445.5,735.5C 1354.33,734.501 1263,734.167 1171.5,734.5C 1171.5,679.833 1171.5,625.167 1171.5,570.5C 1422.5,570.5 1673.5,570.5 1924.5,570.5C 1924.5,625.167 1924.5,679.833 1924.5,734.5 Z"/></g>
<g><path style="opacity:1" fill="#9ec3e6" d="M 1924.5,734.5 C 1924.5,679.833 1924.5,625.167 1924.5,570.5C 1673.5,570.5 1422.5,570.5 1171.5,570.5C 1171.5,625.167 1171.5,679.833 1171.5,734.5C 1263,734.167 1354.33,734.501 1445.5,735.5C 1353.83,735.5 1262.17,735.5 1170.5,735.5C 1170.5,680.167 1170.5,624.833 1170.5,569.5C 1422.17,569.5 1673.83,569.5 1925.5,569.5C 1925.83,624.669 1925.5,679.669 1924.5,734.5 Z"/></g>
<g><path style="opacity:1" fill="#406bb9" d="M 1928.5,567.5 C 1928.83,567.5 1929.17,567.5 1929.5,567.5C 1929.33,571.514 1929.5,575.514 1930,579.5C 1932.67,581.5 1935,583.833 1937,586.5C 1941.9,595.862 1944.23,605.862 1944,616.5C 1944.67,654.5 1944.67,692.5 1944,730.5C 1944.17,759.667 1929.67,774.167 1900.5,774C 1827.83,774.333 1755.17,774.667 1682.5,775C 1679.64,775.54 1676.97,776.54 1674.5,778C 1672.44,780.511 1670.94,783.344 1670,786.5C 1668.67,1034.46 1668,1282.46 1668,1530.5C 1668.07,1555.76 1655.57,1569.59 1630.5,1572C 1575.17,1572.67 1519.83,1572.67 1464.5,1572C 1442.64,1570.81 1430.47,1559.31 1428,1537.5C 1427.99,1287.48 1427.33,1037.48 1426,787.5C 1423.73,780.894 1419.23,776.727 1412.5,775C 1341.17,774.667 1269.83,774.333 1198.5,774C 1191.8,773.639 1185.13,772.972 1178.5,772C 1163.32,767.504 1154.82,757.337 1153,741.5C 1151.9,718.522 1151.4,695.522 1151.5,672.5C 1151.39,650.141 1151.89,627.808 1153,605.5C 1153.38,594.48 1157.88,585.813 1166.5,579.5C 1166.5,581.167 1166.5,582.833 1166.5,584.5C 1160.05,591.077 1156.55,599.077 1156,608.5C 1155.33,651.167 1155.33,693.833 1156,736.5C 1156.79,751.96 1164.29,762.46 1178.5,768C 1181.83,768.667 1185.17,769.333 1188.5,770C 1262.83,770.333 1337.17,770.667 1411.5,771C 1421.92,771.784 1428.08,777.284 1430,787.5C 1431.33,1038.14 1431.99,1288.81 1432,1539.5C 1433.47,1548.61 1437.63,1556.11 1444.5,1562C 1456.11,1567.8 1468.45,1570.13 1481.5,1569C 1532.51,1569.91 1583.51,1569.58 1634.5,1568C 1650.01,1566.15 1659.51,1557.65 1663,1542.5C 1664.33,1292.52 1664.99,1042.52 1665,792.5C 1665.23,779.609 1671.73,772.443 1684.5,771C 1758.83,770.667 1833.17,770.333 1907.5,770C 1927.47,767.7 1938.3,756.534 1940,736.5C 1940.67,693.833 1940.67,651.167 1940,608.5C 1939.76,599.103 1936.43,591.103 1930,584.5C 1929.5,588.486 1929.33,592.486 1929.5,596.5C 1929.5,598.833 1929.5,601.167 1929.5,603.5C 1929.83,648.336 1929.5,693.003 1928.5,737.5C 1928.5,680.833 1928.5,624.167 1928.5,567.5 Z"/></g>
<g><path style="opacity:1" fill="#3d67b2" d="M 1166.5,584.5 C 1166.5,588.5 1166.5,592.5 1166.5,596.5C 1163.3,602.303 1161.8,608.636 1162,615.5C 1161.33,653.5 1161.33,691.5 1162,729.5C 1161.54,751.705 1172.37,763.205 1194.5,764C 1267.5,764.333 1340.5,764.667 1413.5,765C 1422.98,764.984 1429.82,769.151 1434,777.5C 1435.73,783.032 1436.73,788.699 1437,794.5C 1437.33,1041.83 1437.67,1289.17 1438,1536.5C 1439.87,1549.37 1447.04,1557.53 1459.5,1561C 1488.96,1562.15 1518.46,1562.65 1548,1562.5C 1577.54,1562.65 1607.04,1562.15 1636.5,1561C 1648.23,1557.94 1655.06,1550.44 1657,1538.5C 1658.33,1288.52 1658.99,1038.52 1659,788.5C 1659.34,773.828 1666.84,765.995 1681.5,765C 1754.83,764.667 1828.17,764.333 1901.5,764C 1922.33,763.167 1933.17,752.333 1934,731.5C 1934.67,692.167 1934.67,652.833 1934,613.5C 1933.88,607.345 1932.38,601.678 1929.5,596.5C 1929.33,592.486 1929.5,588.486 1930,584.5C 1936.43,591.103 1939.76,599.103 1940,608.5C 1940.67,651.167 1940.67,693.833 1940,736.5C 1938.3,756.534 1927.47,767.7 1907.5,770C 1833.17,770.333 1758.83,770.667 1684.5,771C 1671.73,772.443 1665.23,779.609 1665,792.5C 1664.99,1042.52 1664.33,1292.52 1663,1542.5C 1659.51,1557.65 1650.01,1566.15 1634.5,1568C 1583.51,1569.58 1532.51,1569.91 1481.5,1569C 1468.45,1570.13 1456.11,1567.8 1444.5,1562C 1437.63,1556.11 1433.47,1548.61 1432,1539.5C 1431.99,1288.81 1431.33,1038.14 1430,787.5C 1428.08,777.284 1421.92,771.784 1411.5,771C 1337.17,770.667 1262.83,770.333 1188.5,770C 1185.17,769.333 1181.83,768.667 1178.5,768C 1164.29,762.46 1156.79,751.96 1156,736.5C 1155.33,693.833 1155.33,651.167 1156,608.5C 1156.55,599.077 1160.05,591.077 1166.5,584.5 Z"/></g>
<g><path style="opacity:1" fill="#3c64ac" d="M 1166.5,596.5 C 1166.5,599.167 1166.5,601.833 1166.5,604.5C 1165.7,605.952 1165.2,607.618 1165,609.5C 1164.33,651.5 1164.33,693.5 1165,735.5C 1166.52,750.355 1174.68,758.855 1189.5,761C 1262.17,761.333 1334.83,761.667 1407.5,762C 1425.92,760.266 1436.42,768.433 1439,786.5C 1439.01,1037.19 1439.67,1287.85 1441,1538.5C 1443.82,1549.32 1450.66,1556.16 1461.5,1559C 1489.81,1560.13 1518.14,1560.63 1546.5,1560.5C 1575.52,1560.62 1604.52,1560.12 1633.5,1559C 1646.7,1556.14 1653.86,1547.97 1655,1534.5C 1655.33,1287.83 1655.67,1041.17 1656,794.5C 1655.45,784.485 1658.28,775.652 1664.5,768C 1672.19,763.594 1680.52,761.594 1689.5,762C 1761.5,761.667 1833.5,761.333 1905.5,761C 1920.67,759.167 1929.17,750.667 1931,735.5C 1931.67,693.5 1931.67,651.5 1931,609.5C 1930.81,607.292 1930.31,605.292 1929.5,603.5C 1929.5,601.167 1929.5,598.833 1929.5,596.5C 1932.38,601.678 1933.88,607.345 1934,613.5C 1934.67,652.833 1934.67,692.167 1934,731.5C 1933.17,752.333 1922.33,763.167 1901.5,764C 1828.17,764.333 1754.83,764.667 1681.5,765C 1666.84,765.995 1659.34,773.828 1659,788.5C 1658.99,1038.52 1658.33,1288.52 1657,1538.5C 1655.06,1550.44 1648.23,1557.94 1636.5,1561C 1607.04,1562.15 1577.54,1562.65 1548,1562.5C 1518.46,1562.65 1488.96,1562.15 1459.5,1561C 1447.04,1557.53 1439.87,1549.37 1438,1536.5C 1437.67,1289.17 1437.33,1041.83 1437,794.5C 1436.73,788.699 1435.73,783.032 1434,777.5C 1429.82,769.151 1422.98,764.984 1413.5,765C 1340.5,764.667 1267.5,764.333 1194.5,764C 1172.37,763.205 1161.54,751.705 1162,729.5C 1161.33,691.5 1161.33,653.5 1162,615.5C 1161.8,608.636 1163.3,602.303 1166.5,596.5 Z"/></g>
<g><path style="opacity:1" fill="#3a61a8" d="M 1929.5,603.5 C 1930.31,605.292 1930.81,607.292 1931,609.5C 1931.67,651.5 1931.67,693.5 1931,735.5C 1929.17,750.667 1920.67,759.167 1905.5,761C 1833.5,761.333 1761.5,761.667 1689.5,762C 1680.52,761.594 1672.19,763.594 1664.5,768C 1658.28,775.652 1655.45,784.485 1656,794.5C 1655.67,1041.17 1655.33,1287.83 1655,1534.5C 1653.86,1547.97 1646.7,1556.14 1633.5,1559C 1604.52,1560.12 1575.52,1560.62 1546.5,1560.5C 1518.14,1560.63 1489.81,1560.13 1461.5,1559C 1450.66,1556.16 1443.82,1549.32 1441,1538.5C 1439.67,1287.85 1439.01,1037.19 1439,786.5C 1436.42,768.433 1425.92,760.266 1407.5,762C 1334.83,761.667 1262.17,761.333 1189.5,761C 1174.68,758.855 1166.52,750.355 1165,735.5C 1164.33,693.5 1164.33,651.5 1165,609.5C 1165.2,607.618 1165.7,605.952 1166.5,604.5C 1166.33,648.835 1166.5,693.168 1167,737.5C 1167.38,738.056 1167.88,738.389 1168.5,738.5C 1169.21,739.404 1170.21,739.737 1171.5,739.5C 1173.15,746.657 1177.49,751.491 1184.5,754C 1187.42,754.988 1190.42,755.654 1193.5,756C 1266.5,756.333 1339.5,756.667 1412.5,757C 1425.67,756.285 1435.33,761.452 1441.5,772.5C 1441.17,1027.33 1441.5,1282 1442.5,1536.5C 1445.29,1537.48 1448.29,1537.81 1451.5,1537.5C 1451.5,1537.83 1451.5,1538.17 1451.5,1538.5C 1450.17,1538.5 1448.83,1538.5 1447.5,1538.5C 1448.74,1544.91 1452.41,1549.41 1458.5,1552C 1460.79,1552.82 1463.12,1553.49 1465.5,1554C 1492.98,1555.12 1520.48,1555.62 1548,1555.5C 1575.19,1555.62 1602.36,1555.12 1629.5,1554C 1633.93,1553.3 1637.93,1551.64 1641.5,1549C 1644.99,1545.1 1648.32,1541.26 1651.5,1537.5C 1652.17,1537.5 1652.5,1537.17 1652.5,1536.5C 1653.5,1282.33 1653.83,1028 1653.5,773.5C 1659.68,761.566 1669.68,756.066 1683.5,757C 1756.17,756.667 1828.83,756.333 1901.5,756C 1913.19,755.843 1920.86,750.343 1924.5,739.5C 1925.79,739.737 1926.79,739.404 1927.5,738.5C 1928.17,738.5 1928.5,738.167 1928.5,737.5C 1929.5,693.003 1929.83,648.336 1929.5,603.5 Z"/></g>
<g><path style="opacity:1" fill="#406bb8" d="M 1035.5,698.5 C 1038.06,699.543 1040.22,701.21 1042,703.5C 1114.17,787.234 1155.17,884.568 1165,995.5C 1175.38,1094.8 1164.05,1191.47 1131,1285.5C 1117.12,1319.94 1100.12,1352.6 1080,1383.5C 1066.1,1403.4 1051.43,1422.73 1036,1441.5C 1035.5,1443.5 1035,1445.5 1034.5,1447.5C 1036.03,1452.36 1038.03,1457.03 1040.5,1461.5C 1036.17,1457.83 1032.17,1453.83 1028.5,1449.5C 1028.18,1446.02 1028.68,1442.69 1030,1439.5C 1038.52,1427.8 1047.52,1416.47 1057,1405.5C 1118.5,1322.38 1152.84,1228.71 1160,1124.5C 1165.88,1053.36 1160.88,983.031 1145,913.5C 1138.73,889.702 1131.07,866.368 1122,843.5C 1121.54,844.094 1121.37,844.761 1121.5,845.5C 1101.31,791.438 1072.64,742.438 1035.5,698.5 Z"/></g>
<g><path style="opacity:1" fill="#406bb9" d="M 323.5,710.5 C 301.757,736.925 282.757,765.259 266.5,795.5C 264.926,795.937 263.759,796.937 263,798.5C 223.069,871.985 200.736,950.651 196,1034.5C 190.909,1107.33 197.576,1179 216,1249.5C 250.283,1363.46 316.783,1452.63 415.5,1517C 495.167,1564.65 581.667,1587.48 675,1585.5C 691.18,1585.41 707.346,1584.91 723.5,1584C 749.296,1581.47 774.962,1577.97 800.5,1573.5C 809.11,1574.47 816.777,1577.64 823.5,1583C 857.276,1616.44 890.61,1650.11 923.5,1684C 930.623,1690.39 938.957,1694.39 948.5,1696C 953.123,1696.96 957.79,1697.62 962.5,1698C 1046.83,1698.67 1131.17,1698.67 1215.5,1698C 1228.25,1699.01 1237.75,1694.17 1244,1683.5C 1244.82,1678.33 1244.32,1673.33 1242.5,1668.5C 1245.17,1668.5 1247.83,1668.5 1250.5,1668.5C 1254.84,1679.21 1252.84,1688.38 1244.5,1696C 1239.59,1699.12 1234.25,1701.12 1228.5,1702C 1136.83,1702.67 1045.17,1702.67 953.5,1702C 941.415,1699.87 930.748,1694.87 921.5,1687C 889.249,1653.75 856.582,1620.75 823.5,1588C 819.783,1584.62 815.783,1581.62 811.5,1579C 807.541,1578.17 803.541,1577.67 799.5,1577.5C 731.501,1590.27 663.167,1592.44 594.5,1584C 457.954,1563.85 351.12,1497.02 274,1383.5C 228.473,1313.26 201.806,1236.26 194,1152.5C 184.434,1059.04 194.101,967.706 223,878.5C 244.506,817.122 276.506,762.122 319,713.5C 320.129,711.859 321.629,710.859 323.5,710.5 Z"/></g>
<g><path style="opacity:1" fill="#609cd5" d="M 667.5,728.5 C 788.324,724.864 869.824,779.53 912,892.5C 933.704,958.47 941.704,1026.14 936,1095.5C 933.264,1155.89 916.931,1212.23 887,1264.5C 844.983,1331.75 784.149,1368.58 704.5,1375C 592.517,1382.94 511.35,1337.11 461,1237.5C 439.264,1191.62 426.931,1143.28 424,1092.5C 419.256,1034.82 424.589,978.156 440,922.5C 457.717,861.512 491.217,811.345 540.5,772C 578.732,745.423 621.065,730.923 667.5,728.5 Z"/></g>
<g><path style="opacity:1" fill="#335693" d="M 867.5,819.5 C 867.565,819.938 867.399,820.272 867,820.5C 823.578,772.308 769.078,746.475 703.5,743C 636.662,737.736 576.995,755.402 524.5,796C 512.299,806.534 501.132,818.034 491,830.5C 490.601,830.272 490.435,829.938 490.5,829.5C 530.084,773.852 584.084,742.018 652.5,734C 700.761,728.822 747.094,735.822 791.5,755C 822.159,770.172 847.492,791.672 867.5,819.5 Z"/></g>
<g><path style="opacity:1" fill="#355a9a" d="M 1171.5,739.5 C 1175.5,739.5 1179.5,739.5 1183.5,739.5C 1184.74,741.988 1186.74,743.821 1189.5,745C 1193.08,746.073 1196.75,746.74 1200.5,747C 1272.5,747.333 1344.5,747.667 1416.5,748C 1425.68,747.929 1434.01,750.429 1441.5,755.5C 1441.5,761.167 1441.5,766.833 1441.5,772.5C 1435.33,761.452 1425.67,756.285 1412.5,757C 1339.5,756.667 1266.5,756.333 1193.5,756C 1190.42,755.654 1187.42,754.988 1184.5,754C 1177.49,751.491 1173.15,746.657 1171.5,739.5 Z"/></g>
<g><path style="opacity:1" fill="#325491" d="M 1183.5,739.5 C 1269.5,739.5 1355.5,739.5 1441.5,739.5C 1441.5,744.833 1441.5,750.167 1441.5,755.5C 1434.01,750.429 1425.68,747.929 1416.5,748C 1344.5,747.667 1272.5,747.333 1200.5,747C 1196.75,746.74 1193.08,746.073 1189.5,745C 1186.74,743.821 1184.74,741.988 1183.5,739.5 Z"/></g>
<g><path style="opacity:1" fill="#325491" d="M 1913.5,739.5 C 1909.13,744.536 1903.46,747.036 1896.5,747C 1824.5,747.333 1752.5,747.667 1680.5,748C 1670.7,747.866 1661.7,750.366 1653.5,755.5C 1653.5,750.167 1653.5,744.833 1653.5,739.5C 1740.17,739.5 1826.83,739.5 1913.5,739.5 Z"/></g>
<g><path style="opacity:1" fill="#365b9c" d="M 1913.5,739.5 C 1917.17,739.5 1920.83,739.5 1924.5,739.5C 1920.86,750.343 1913.19,755.843 1901.5,756C 1828.83,756.333 1756.17,756.667 1683.5,757C 1669.68,756.066 1659.68,761.566 1653.5,773.5C 1653.5,767.5 1653.5,761.5 1653.5,755.5C 1661.7,750.366 1670.7,747.866 1680.5,748C 1752.5,747.667 1824.5,747.333 1896.5,747C 1903.46,747.036 1909.13,744.536 1913.5,739.5 Z"/></g>
<g><path style="opacity:1" fill="#355999" d="M 867.5,819.5 C 884.956,841.732 898.289,866.399 907.5,893.5C 850.472,775.986 756.139,729.153 624.5,753C 571.591,765.358 528.091,792.524 494,834.5C 476.968,855.877 462.968,879.21 452,904.5C 451.536,903.906 451.369,903.239 451.5,902.5C 460.741,875.987 473.741,851.654 490.5,829.5C 490.435,829.938 490.601,830.272 491,830.5C 501.132,818.034 512.299,806.534 524.5,796C 576.995,755.402 636.662,737.736 703.5,743C 769.078,746.475 823.578,772.308 867,820.5C 867.399,820.272 867.565,819.938 867.5,819.5 Z"/></g>
<g><path style="opacity:1" fill="#375d9f" d="M 907.5,893.5 C 914.29,910.552 919.29,928.219 922.5,946.5C 922.665,949.518 922.498,952.518 922,955.5C 910.973,904.113 888.307,858.78 854,819.5C 807.896,773.136 751.896,750.136 686,750.5C 590.926,751.014 519.593,792.014 472,873.5C 456.146,901.563 444.312,931.23 436.5,962.5C 435.702,962.043 435.369,961.376 435.5,960.5C 438.632,940.455 443.965,921.122 451.5,902.5C 451.369,903.239 451.536,903.906 452,904.5C 462.968,879.21 476.968,855.877 494,834.5C 528.091,792.524 571.591,765.358 624.5,753C 756.139,729.153 850.472,775.986 907.5,893.5 Z"/></g>
<g><path style="opacity:1" fill="#3961a6" d="M 922.5,946.5 C 928.36,972.713 931.86,999.379 933,1026.5C 933.705,1047.18 933.538,1067.84 932.5,1088.5C 932.68,1040.32 927.18,992.651 916,945.5C 902.58,890.807 875.413,844.307 834.5,806C 791.008,770.667 741.008,753.5 684.5,754.5C 595.262,754.853 527.096,792.519 480,867.5C 453.25,911.797 437.25,959.797 432,1011.5C 429.452,1036.6 427.952,1061.6 427.5,1086.5C 425.572,1051.72 426.738,1017.06 431,982.5C 431.856,974.902 433.356,967.569 435.5,960.5C 435.369,961.376 435.702,962.043 436.5,962.5C 444.312,931.23 456.146,901.563 472,873.5C 519.593,792.014 590.926,751.014 686,750.5C 751.896,750.136 807.896,773.136 854,819.5C 888.307,858.78 910.973,904.113 922,955.5C 922.498,952.518 922.665,949.518 922.5,946.5 Z"/></g>
<g><path style="opacity:1" fill="#3b64ac" d="M 932.5,1088.5 C 930.978,1115.15 927.311,1141.49 921.5,1167.5C 920.853,1166.73 920.52,1165.73 920.5,1164.5C 930.437,1100.03 929.604,1035.69 918,971.5C 908.744,920.674 888.41,875.007 857,834.5C 811.783,782.989 754.616,757.656 685.5,758.5C 596.437,758.601 528.604,796.268 482,871.5C 453.465,920.621 437.465,973.621 434,1030.5C 430.431,1075.46 432.598,1120.13 440.5,1164.5C 440.457,1165.42 440.124,1166.08 439.5,1166.5C 433.172,1140.2 429.172,1113.54 427.5,1086.5C 427.952,1061.6 429.452,1036.6 432,1011.5C 437.25,959.797 453.25,911.797 480,867.5C 527.096,792.519 595.262,754.853 684.5,754.5C 741.008,753.5 791.008,770.667 834.5,806C 875.413,844.307 902.58,890.807 916,945.5C 927.18,992.651 932.68,1040.32 932.5,1088.5 Z"/></g>
<g><path style="opacity:1" fill="#3d67b1" d="M 921.5,1167.5 C 916.162,1189.85 908.828,1211.52 899.5,1232.5C 898.903,1232.26 898.57,1231.76 898.5,1231C 912.942,1191.79 921.109,1151.29 923,1109.5C 926.768,1051.52 921.102,994.518 906,938.5C 893.219,892.738 870.386,852.904 837.5,819C 794.588,779.906 743.755,761.072 685,762.5C 600.326,762.16 534.993,797.16 489,867.5C 459.008,916.485 442.008,969.818 438,1027.5C 433.261,1081.08 436.928,1134.08 449,1186.5C 452.701,1200.27 457.201,1213.77 462.5,1227C 462.43,1227.76 462.097,1228.26 461.5,1228.5C 452.379,1208.47 445.046,1187.8 439.5,1166.5C 440.124,1166.08 440.457,1165.42 440.5,1164.5C 432.598,1120.13 430.431,1075.46 434,1030.5C 437.465,973.621 453.465,920.621 482,871.5C 528.604,796.268 596.437,758.601 685.5,758.5C 754.616,757.656 811.783,782.989 857,834.5C 888.41,875.007 908.744,920.674 918,971.5C 929.604,1035.69 930.437,1100.03 920.5,1164.5C 920.52,1165.73 920.853,1166.73 921.5,1167.5 Z"/></g>
<g><path style="opacity:1" fill="#406bb8" d="M 899.5,1232.5 C 886.475,1261.17 868.808,1286.5 846.5,1308.5C 849.656,1302.23 853.823,1296.56 859,1291.5C 888.642,1248.83 906.642,1201.5 913,1149.5C 923.84,1072.75 917.84,997.416 895,923.5C 882.091,886.308 862.258,853.475 835.5,825C 799.694,791.107 757.028,772.44 707.5,769C 605.123,761.868 529.623,803.034 481,892.5C 462.104,931.682 450.104,973.016 445,1016.5C 437.555,1080.95 442.889,1144.28 461,1206.5C 475.166,1248.19 496.999,1285.19 526.5,1317.5C 498.759,1292.39 477.092,1262.72 461.5,1228.5C 462.097,1228.26 462.43,1227.76 462.5,1227C 457.201,1213.77 452.701,1200.27 449,1186.5C 436.928,1134.08 433.261,1081.08 438,1027.5C 442.008,969.818 459.008,916.485 489,867.5C 534.993,797.16 600.326,762.16 685,762.5C 743.755,761.072 794.588,779.906 837.5,819C 870.386,852.904 893.219,892.738 906,938.5C 921.102,994.518 926.768,1051.52 923,1109.5C 921.109,1151.29 912.942,1191.79 898.5,1231C 898.57,1231.76 898.903,1232.26 899.5,1232.5 Z"/></g>
<g><path style="opacity:1" fill="#4777b6" d="M 1927.5,738.5 C 1926.79,739.404 1925.79,739.737 1924.5,739.5C 1920.83,739.5 1917.17,739.5 1913.5,739.5C 1826.83,739.5 1740.17,739.5 1653.5,739.5C 1653.5,744.833 1653.5,750.167 1653.5,755.5C 1653.5,761.5 1653.5,767.5 1653.5,773.5C 1653.83,1028 1653.5,1282.33 1652.5,1536.5C 1652.5,1270.5 1652.5,1004.5 1652.5,738.5C 1744.17,738.5 1835.83,738.5 1927.5,738.5 Z"/></g>
<g><path style="opacity:1" fill="#426fbe" d="M 846.5,1308.5 C 812.289,1341.94 771.289,1362.1 723.5,1369C 676.186,1376.33 630.186,1371.67 585.5,1355C 563.539,1345.83 543.872,1333.33 526.5,1317.5C 496.999,1285.19 475.166,1248.19 461,1206.5C 442.889,1144.28 437.555,1080.95 445,1016.5C 450.104,973.016 462.104,931.682 481,892.5C 529.623,803.034 605.123,761.868 707.5,769C 757.028,772.44 799.694,791.107 835.5,825C 862.258,853.475 882.091,886.308 895,923.5C 917.84,997.416 923.84,1072.75 913,1149.5C 906.642,1201.5 888.642,1248.83 859,1291.5C 853.823,1296.56 849.656,1302.23 846.5,1308.5 Z"/></g>
<g><path style="opacity:1" fill="#426fb0" d="M 1168.5,738.5 C 1259.83,738.5 1351.17,738.5 1442.5,738.5C 1442.5,1004.5 1442.5,1270.5 1442.5,1536.5C 1441.5,1282 1441.17,1027.33 1441.5,772.5C 1441.5,766.833 1441.5,761.167 1441.5,755.5C 1441.5,750.167 1441.5,744.833 1441.5,739.5C 1355.5,739.5 1269.5,739.5 1183.5,739.5C 1179.5,739.5 1175.5,739.5 1171.5,739.5C 1170.21,739.737 1169.21,739.404 1168.5,738.5 Z"/></g>
<g><path style="opacity:1" fill="#4371c3" d="M 669.5,777.5 C 680.838,777.333 692.172,777.5 703.5,778C 737.941,780.221 769.941,790.221 799.5,808C 803.5,810.667 807.5,813.333 811.5,816C 816.893,821.219 821.893,826.386 826.5,831.5C 830.833,832.5 833.5,835.167 834.5,839.5C 837.388,839.22 838.888,840.553 839,843.5C 845,850.833 851,858.167 857,865.5C 879.183,902.303 894.183,941.969 902,984.5C 910.665,1044.42 910.665,1104.42 902,1164.5C 896.964,1187.61 890.298,1210.28 882,1232.5C 875.623,1244.29 869.623,1256.29 864,1268.5C 862.333,1270.17 860.667,1271.83 859,1273.5C 835.334,1312.73 802.167,1339.9 759.5,1355C 749.496,1357.93 739.496,1360.6 729.5,1363C 718.848,1364.49 708.182,1365.82 697.5,1367C 686.167,1367.67 674.833,1367.67 663.5,1367C 652.817,1365.83 642.15,1364.5 631.5,1363C 614.789,1358.83 598.456,1353.49 582.5,1347C 571.167,1339.67 559.833,1332.33 548.5,1325C 538.667,1315.17 528.833,1305.33 519,1295.5C 495.415,1265.1 478.081,1231.43 467,1194.5C 460.299,1169.5 455.632,1144.16 453,1118.5C 452.606,1103.81 451.773,1089.14 450.5,1074.5C 451.875,1051.8 453.375,1029.13 455,1006.5C 457.536,993.112 460.203,979.779 463,966.5C 471.782,934.049 484.782,903.383 502,874.5C 507.445,868.386 512.112,861.72 516,854.5C 522,848.5 528,842.5 534,836.5C 534.483,835.552 534.649,834.552 534.5,833.5C 535.552,833.649 536.552,833.483 537.5,833C 558.512,811.834 583.179,796.834 611.5,788C 619.425,786.523 627.092,784.523 634.5,782C 646.234,780.207 657.901,778.707 669.5,777.5 Z"/></g>
<g><path style="opacity:1" fill="#3d67b1" d="M 1028.5,1449.5 C 1026.5,1448.17 1024.83,1446.5 1023.5,1444.5C 1025.35,1440.11 1027.52,1435.78 1030,1431.5C 1086.96,1366.92 1124.96,1292.25 1144,1207.5C 1161.76,1120.43 1163.09,1033.09 1148,945.5C 1147.57,941.676 1146.4,938.343 1144.5,935.5C 1139.11,904.901 1131.45,874.901 1121.5,845.5C 1121.37,844.761 1121.54,844.094 1122,843.5C 1131.07,866.368 1138.73,889.702 1145,913.5C 1160.88,983.031 1165.88,1053.36 1160,1124.5C 1152.84,1228.71 1118.5,1322.38 1057,1405.5C 1047.52,1416.47 1038.52,1427.8 1030,1439.5C 1028.68,1442.69 1028.18,1446.02 1028.5,1449.5 Z"/></g>
<g><path style="opacity:1" fill="#3b63aa" d="M 1144.5,935.5 C 1146.4,938.343 1147.57,941.676 1148,945.5C 1163.09,1033.09 1161.76,1120.43 1144,1207.5C 1124.96,1292.25 1086.96,1366.92 1030,1431.5C 1027.52,1435.78 1025.35,1440.11 1023.5,1444.5C 1020.42,1442.63 1017.75,1440.29 1015.5,1437.5C 1081.13,1365.75 1122.79,1281.58 1140.5,1185C 1140.47,1183.93 1140.14,1183.1 1139.5,1182.5C 1156.18,1100.44 1157.84,1018.1 1144.5,935.5 Z"/></g>
<g><path style="opacity:1" fill="#3b64ac" d="M 214.5,949.5 C 211.305,973.421 208.805,997.421 207,1021.5C 206.5,1045.16 206.333,1068.83 206.5,1092.5C 205.67,1082.34 205.17,1072.01 205,1061.5C 200.737,1148.75 215.737,1232.41 250,1312.5C 292.668,1403.5 357.834,1473.67 445.5,1523C 508.574,1555.19 575.574,1572.52 646.5,1575C 696.279,1577.3 745.612,1573.63 794.5,1564C 807.41,1562.08 818.743,1565.42 828.5,1574C 862.195,1607.36 895.528,1641.03 928.5,1675C 936.072,1681.45 944.738,1685.79 954.5,1688C 1039.48,1689.64 1124.48,1689.98 1209.5,1689C 1215.74,1688.69 1221.74,1687.35 1227.5,1685C 1233.73,1680.66 1235.07,1675.16 1231.5,1668.5C 1233.5,1668.5 1235.5,1668.5 1237.5,1668.5C 1241.76,1679.81 1238.09,1687.31 1226.5,1691C 1221.88,1691.96 1217.21,1692.62 1212.5,1693C 1126.48,1693.98 1040.48,1693.64 954.5,1692C 945.643,1690.61 937.643,1687.27 930.5,1682C 894.671,1646.17 859.004,1610.5 823.5,1575C 816.668,1570 809.001,1567.5 800.5,1567.5C 740.263,1578.91 679.597,1582.08 618.5,1577C 459.262,1559.68 340.095,1481.85 261,1343.5C 219.288,1262.31 199.122,1175.98 200.5,1084.5C 200.631,1049.99 203.131,1015.66 208,981.5C 209.862,970.635 212.028,959.969 214.5,949.5 Z"/></g>
<g><path style="opacity:1" fill="#3960a5" d="M 206.5,1092.5 C 208.511,1136.91 215.178,1180.58 226.5,1223.5C 225.366,1225.97 225.199,1228.63 226,1231.5C 257.119,1349.24 323.619,1441.07 425.5,1507C 492.4,1546.3 564.733,1567.63 642.5,1571C 693.632,1573.66 744.299,1569.99 794.5,1560C 804.426,1558.45 813.76,1560.12 822.5,1565C 827.454,1568.29 832.12,1571.95 836.5,1576C 867.833,1608 899.167,1640 930.5,1672C 937.605,1677.77 945.605,1681.77 954.5,1684C 1038.8,1685.65 1123.14,1685.98 1207.5,1685C 1214.82,1685.23 1220.99,1682.73 1226,1677.5C 1226.74,1674.41 1226.57,1671.41 1225.5,1668.5C 1227.5,1668.5 1229.5,1668.5 1231.5,1668.5C 1235.07,1675.16 1233.73,1680.66 1227.5,1685C 1221.74,1687.35 1215.74,1688.69 1209.5,1689C 1124.48,1689.98 1039.48,1689.64 954.5,1688C 944.738,1685.79 936.072,1681.45 928.5,1675C 895.528,1641.03 862.195,1607.36 828.5,1574C 818.743,1565.42 807.41,1562.08 794.5,1564C 745.612,1573.63 696.279,1577.3 646.5,1575C 575.574,1572.52 508.574,1555.19 445.5,1523C 357.834,1473.67 292.668,1403.5 250,1312.5C 215.737,1232.41 200.737,1148.75 205,1061.5C 205.17,1072.01 205.67,1082.34 206.5,1092.5 Z"/></g>
<g><path style="opacity:1" fill="#375c9e" d="M 1139.5,1182.5 C 1140.14,1183.1 1140.47,1183.93 1140.5,1185C 1122.79,1281.58 1081.13,1365.75 1015.5,1437.5C 1011.63,1434.81 1008.79,1431.48 1007,1427.5C 1075.68,1359.49 1119.85,1277.83 1139.5,1182.5 Z"/></g>
<g><path style="opacity:1" fill="#375c9f" d="M 226.5,1223.5 C 233.407,1246.99 241.74,1269.99 251.5,1292.5C 250.903,1292.74 250.57,1293.24 250.5,1294C 298.042,1406.54 378.042,1486.88 490.5,1535C 572.371,1565.11 656.705,1574.77 743.5,1564C 760.237,1561.77 776.904,1559.1 793.5,1556C 809.375,1553.51 823.042,1557.85 834.5,1569C 868.249,1602.41 901.582,1636.08 934.5,1670C 941.083,1674.96 948.416,1678.29 956.5,1680C 1038.47,1681.65 1120.47,1681.98 1202.5,1681C 1206.53,1680.52 1210.53,1679.85 1214.5,1679C 1218.36,1676.58 1220.03,1673.08 1219.5,1668.5C 1221.5,1668.5 1223.5,1668.5 1225.5,1668.5C 1226.57,1671.41 1226.74,1674.41 1226,1677.5C 1220.99,1682.73 1214.82,1685.23 1207.5,1685C 1123.14,1685.98 1038.8,1685.65 954.5,1684C 945.605,1681.77 937.605,1677.77 930.5,1672C 899.167,1640 867.833,1608 836.5,1576C 832.12,1571.95 827.454,1568.29 822.5,1565C 813.76,1560.12 804.426,1558.45 794.5,1560C 744.299,1569.99 693.632,1573.66 642.5,1571C 564.733,1567.63 492.4,1546.3 425.5,1507C 323.619,1441.07 257.119,1349.24 226,1231.5C 225.199,1228.63 225.366,1225.97 226.5,1223.5 Z"/></g>
<g><path style="opacity:1" fill="#355999" d="M 251.5,1292.5 C 272.188,1336.56 298.854,1376.56 331.5,1412.5C 330.475,1412.9 330.308,1413.56 331,1414.5C 410.996,1504.58 511.496,1553.74 632.5,1562C 660.167,1562.67 687.833,1562.67 715.5,1562C 744.524,1559.6 773.357,1555.76 802,1550.5C 813.665,1550.7 824.165,1554.2 833.5,1561C 868.554,1596.05 903.554,1631.05 938.5,1666C 939.437,1666.69 940.103,1666.53 940.5,1665.5C 941.833,1666.17 942.833,1667.17 943.5,1668.5C 942.262,1668.81 942.262,1669.31 943.5,1670C 949.389,1673.38 955.722,1675.38 962.5,1676C 1039.17,1676.67 1115.83,1676.67 1192.5,1676C 1198.36,1675.61 1203.86,1674.11 1209,1671.5C 1209.48,1670.55 1209.65,1669.55 1209.5,1668.5C 1212.83,1668.5 1216.17,1668.5 1219.5,1668.5C 1220.03,1673.08 1218.36,1676.58 1214.5,1679C 1210.53,1679.85 1206.53,1680.52 1202.5,1681C 1120.47,1681.98 1038.47,1681.65 956.5,1680C 948.416,1678.29 941.083,1674.96 934.5,1670C 901.582,1636.08 868.249,1602.41 834.5,1569C 823.042,1557.85 809.375,1553.51 793.5,1556C 776.904,1559.1 760.237,1561.77 743.5,1564C 656.705,1574.77 572.371,1565.11 490.5,1535C 378.042,1486.88 298.042,1406.54 250.5,1294C 250.57,1293.24 250.903,1292.74 251.5,1292.5 Z"/></g>
<g><path style="opacity:1" fill="#335693" d="M 331.5,1412.5 C 382.627,1467.39 443.96,1506.89 515.5,1531C 592.094,1553.89 670.094,1560.23 749.5,1550C 771.642,1546.42 793.642,1542.42 815.5,1538C 857.369,1580.37 899.036,1622.87 940.5,1665.5C 940.103,1666.53 939.437,1666.69 938.5,1666C 903.554,1631.05 868.554,1596.05 833.5,1561C 824.165,1554.2 813.665,1550.7 802,1550.5C 773.357,1555.76 744.524,1559.6 715.5,1562C 687.833,1562.67 660.167,1562.67 632.5,1562C 511.496,1553.74 410.996,1504.58 331,1414.5C 330.308,1413.56 330.475,1412.9 331.5,1412.5 Z"/></g>
<g><path style="opacity:1" fill="#3e68b4" d="M 266.5,795.5 C 241.347,844.293 224.014,895.626 214.5,949.5C 212.028,959.969 209.862,970.635 208,981.5C 203.131,1015.66 200.631,1049.99 200.5,1084.5C 199.122,1175.98 219.288,1262.31 261,1343.5C 340.095,1481.85 459.262,1559.68 618.5,1577C 679.597,1582.08 740.263,1578.91 800.5,1567.5C 809.001,1567.5 816.668,1570 823.5,1575C 859.004,1610.5 894.671,1646.17 930.5,1682C 937.643,1687.27 945.643,1690.61 954.5,1692C 1040.48,1693.64 1126.48,1693.98 1212.5,1693C 1217.21,1692.62 1221.88,1691.96 1226.5,1691C 1238.09,1687.31 1241.76,1679.81 1237.5,1668.5C 1239.17,1668.5 1240.83,1668.5 1242.5,1668.5C 1244.32,1673.33 1244.82,1678.33 1244,1683.5C 1237.75,1694.17 1228.25,1699.01 1215.5,1698C 1131.17,1698.67 1046.83,1698.67 962.5,1698C 957.79,1697.62 953.123,1696.96 948.5,1696C 938.957,1694.39 930.623,1690.39 923.5,1684C 890.61,1650.11 857.276,1616.44 823.5,1583C 816.777,1577.64 809.11,1574.47 800.5,1573.5C 774.962,1577.97 749.296,1581.47 723.5,1584C 707.346,1584.91 691.18,1585.41 675,1585.5C 581.667,1587.48 495.167,1564.65 415.5,1517C 316.783,1452.63 250.283,1363.46 216,1249.5C 197.576,1179 190.909,1107.33 196,1034.5C 200.736,950.651 223.069,871.985 263,798.5C 263.759,796.937 264.926,795.937 266.5,795.5 Z"/></g>
<g><path style="opacity:1" fill="#355a9b" d="M 1634.5,1537.5 C 1640.17,1537.5 1645.83,1537.5 1651.5,1537.5C 1648.32,1541.26 1644.99,1545.1 1641.5,1549C 1637.93,1551.64 1633.93,1553.3 1629.5,1554C 1602.36,1555.12 1575.19,1555.62 1548,1555.5C 1520.48,1555.62 1492.98,1555.12 1465.5,1554C 1463.12,1553.49 1460.79,1552.82 1458.5,1552C 1452.41,1549.41 1448.74,1544.91 1447.5,1538.5C 1448.83,1538.5 1450.17,1538.5 1451.5,1538.5C 1453.86,1538.34 1456.19,1538.5 1458.5,1539C 1463.6,1543.45 1469.6,1545.78 1476.5,1546C 1523.83,1546.67 1571.17,1546.67 1618.5,1546C 1625.53,1546.01 1631.53,1543.68 1636.5,1539C 1635.58,1538.72 1634.92,1538.22 1634.5,1537.5 Z"/></g>
<g><path style="opacity:1" fill="#335592" d="M 1451.5,1538.5 C 1451.5,1538.17 1451.5,1537.83 1451.5,1537.5C 1512.5,1537.5 1573.5,1537.5 1634.5,1537.5C 1634.92,1538.22 1635.58,1538.72 1636.5,1539C 1631.53,1543.68 1625.53,1546.01 1618.5,1546C 1571.17,1546.67 1523.83,1546.67 1476.5,1546C 1469.6,1545.78 1463.6,1543.45 1458.5,1539C 1456.19,1538.5 1453.86,1538.34 1451.5,1538.5 Z"/></g>
<g><path style="opacity:1" fill="#c1d9ee" d="M 1242.5,1662.5 C 1243.29,1662.78 1243.96,1663.28 1244.5,1664C 1144.33,1664.83 1044.33,1664.67 944.5,1663.5C 1044,1663.83 1143.33,1663.5 1242.5,1662.5 Z"/></g>
<g><path style="opacity:1" fill="#325492" d="M 943.5,1668.5 C 1032.17,1668.5 1120.83,1668.5 1209.5,1668.5C 1209.65,1669.55 1209.48,1670.55 1209,1671.5C 1203.86,1674.11 1198.36,1675.61 1192.5,1676C 1115.83,1676.67 1039.17,1676.67 962.5,1676C 955.722,1675.38 949.389,1673.38 943.5,1670C 942.262,1669.31 942.262,1668.81 943.5,1668.5 Z"/></g>
</svg>
